<!-- Generator: Adobe Illustrator 25.4.1, SVG Export Plug-In . SVG Version: 6.00 Build 0)  --><svg version="1.1" id="Layer_1" xmlns="http://www.w3.org/2000/svg" xmlns:xlink="http://www.w3.org/1999/xlink" height="1" x="0px" y="0px" viewBox="0 0 591.8 522" style="enable-background:new 0 0 591.8 522;" xml:space="preserve" width="24"><style type="text/css">	.st0{clip-path:url(#SVGID_00000174595396447990967810000014561046156192110481_);}	.st1{clip-path:url(#SVGID_00000138537651373122236540000001306227188104950409_);}	.st2{clip-path:url(#SVGID_00000077284697067764521590000014372172064487165326_);}	.st3{clip-path:url(#SVGID_00000080888292117055433470000009451543805367832505_);}	.st4{clip-path:url(#SVGID_00000112601707894284248670000008639664186975848841_);fill:#FFFFFF;}	.st5{clip-path:url(#SVGID_00000109726740836566636800000003762692746093428908_);}	.st6{clip-path:url(#SVGID_00000100360634880371080290000012661298253680007332_);fill:#FFFFFF;}	.st7{clip-path:url(#SVGID_00000089532809726241155150000012544004889298015632_);}	.st8{clip-path:url(#SVGID_00000040565100581709830470000010543715715518959488_);fill:#FFFFFF;}</style><g>	<g>		<defs>			<rect id="SVGID_1_" x="38.2" y="5" width="512" height="512" />		</defs>		<defs>			<path id="SVGID_00000077283086259391858250000009303185052454058374_" d="M294.2,517c141.4,0,256-114.6,256-256S435.5,5,294.2,5     s-256,114.6-256,256S152.8,517,294.2,517L294.2,517z M294.2,517" />		</defs>		<defs>			<rect id="SVGID_00000037689099678604637420000001441291394294046651_" x="38.2" y="-275" width="612" height="792" />		</defs>		<clipPath id="SVGID_00000160183893434550019020000003273142426422205334_">			<use xlink:href="#SVGID_1_" style="overflow:visible;" />		</clipPath>					<clipPath id="SVGID_00000123402813350642733770000008078053508712096444_" style="clip-path:url(#SVGID_00000160183893434550019020000003273142426422205334_);">			<use xlink:href="#SVGID_00000077283086259391858250000009303185052454058374_" style="overflow:visible;" />		</clipPath>					<clipPath id="SVGID_00000049912030913334769930000012566298829117150362_" style="clip-path:url(#SVGID_00000123402813350642733770000008078053508712096444_);">			<use xlink:href="#SVGID_00000037689099678604637420000001441291394294046651_" style="overflow:visible;" />		</clipPath>		<rect x="33.2" style="clip-path:url(#SVGID_00000049912030913334769930000012566298829117150362_);" width="522" height="522" />	</g>	<g>		<defs>			<rect id="SVGID_00000165215417472955823120000013040861057742414008_" x="38.2" y="5" width="512" height="512" />		</defs>		<defs>			<path id="SVGID_00000016785348799154370940000001173181118585134253_" d="M363,243.4c-18.3,0-27.7,14.4-27.7,36.2     c0,20.6,10.1,36,27.7,36c19.9,0,27.3-18.2,27.3-36C390.3,261,381,243.4,363,243.4 M314.3,189.4h21.8v52.2h0.4     c5.9-9.9,18.4-16,29.4-16c31.2,0,46.3,24.5,46.3,54.4c0,27.5-13.4,53.4-42.6,53.4c-13.4,0-27.7-3.4-34.2-16.8h-0.4v14.1h-20.7     L314.3,189.4L314.3,189.4" />		</defs>		<clipPath id="SVGID_00000119795812040154012480000002220667876030137217_">			<use xlink:href="#SVGID_00000165215417472955823120000013040861057742414008_" style="overflow:visible;" />		</clipPath>					<clipPath id="SVGID_00000075878377913192010900000008520115097826770573_" style="clip-path:url(#SVGID_00000119795812040154012480000002220667876030137217_);">			<use xlink:href="#SVGID_00000016785348799154370940000001173181118585134253_" style="overflow:visible;" />		</clipPath>					<rect x="309.3" y="184.4" style="clip-path:url(#SVGID_00000075878377913192010900000008520115097826770573_);fill:#FFFFFF;" width="107.9" height="154" />	</g>	<g>		<defs>			<rect id="SVGID_00000136400029660677150520000008478647184423849634_" x="38.2" y="5" width="512" height="512" />		</defs>		<defs>			<path id="SVGID_00000060719505189362510820000006671928170316742541_" d="M492.5,262.6c-1.7-12.5-10.5-19.2-22.6-19.2     c-11.3,0-27.2,6.1-27.2,37.2c0,17,7.3,35,26.2,35c12.6,0,21.4-8.7,23.5-23.4h21.8c-4,26.5-19.9,41.1-45.3,41.1     c-31,0-48-22.7-48-52.8c0-30.9,16.3-55,48.8-55c22.9,0,42.5,11.9,44.6,37L492.5,262.6L492.5,262.6" />		</defs>		<clipPath id="SVGID_00000158723185261742904000000003373735454514950578_">			<use xlink:href="#SVGID_00000136400029660677150520000008478647184423849634_" style="overflow:visible;" />		</clipPath>					<clipPath id="SVGID_00000147185197718793278080000000470825864482703776_" style="clip-path:url(#SVGID_00000158723185261742904000000003373735454514950578_);">			<use xlink:href="#SVGID_00000060719505189362510820000006671928170316742541_" style="overflow:visible;" />		</clipPath>					<rect x="416" y="220.6" style="clip-path:url(#SVGID_00000147185197718793278080000000470825864482703776_);fill:#FFFFFF;" width="103.3" height="117.8" />	</g>	<g>		<defs>			<rect id="SVGID_00000054233004474954420150000013201816891462172322_" x="38.2" y="5" width="512" height="512" />		</defs>		<defs>			<polyline id="SVGID_00000119076621840584087370000013993252152179642023_" points="238,330.3 74.6,330.3 150.9,189.4      314.4,189.4 238,330.3    " />		</defs>		<clipPath id="SVGID_00000060022459898512659520000009187217307834335920_">			<use xlink:href="#SVGID_00000054233004474954420150000013201816891462172322_" style="overflow:visible;" />		</clipPath>					<clipPath id="SVGID_00000128465629154060763460000017734392249662583728_" style="clip-path:url(#SVGID_00000060022459898512659520000009187217307834335920_);">			<use xlink:href="#SVGID_00000119076621840584087370000013993252152179642023_" style="overflow:visible;" />		</clipPath>					<rect x="69.6" y="184.4" style="clip-path:url(#SVGID_00000128465629154060763460000017734392249662583728_);fill:#FFFFFF;" width="249.8" height="150.9" />	</g></g></svg>